<svg version="1.1" id="Layer_1" xmlns="http://www.w3.org/2000/svg" xmlns:xlink="http://www.w3.org/1999/xlink" x="0px" y="0px"
	 width="100%" viewBox="0 0 1024 1024" enable-background="new 0 0 1024 1024" xml:space="preserve">
<path fill="#FFFFFF" opacity="1.000000" stroke="none" 
	d="
M492.000000,1025.000000 
	C328.000000,1025.000000 164.500000,1025.000000 1.000000,1025.000000 
	C1.000000,683.666687 1.000000,342.333344 1.000000,1.000000 
	C342.333344,1.000000 683.666687,1.000000 1025.000000,1.000000 
	C1025.000000,342.333344 1025.000000,683.666687 1025.000000,1025.000000 
	C847.500000,1025.000000 670.000000,1025.000000 492.000000,1025.000000 
M792.536743,743.234558 
	C793.691650,743.158081 794.846558,743.081604 796.918579,743.211792 
	C803.612122,743.141968 810.305664,743.072205 817.771729,743.235596 
	C824.514954,743.158386 831.258179,743.081177 838.913818,743.210571 
	C843.607483,743.145691 848.301208,743.080811 853.667236,743.254639 
	C855.420898,743.254639 857.174561,743.254639 858.946838,743.254639 
	C858.946838,731.482788 858.946838,720.247986 859.142090,708.350830 
	C859.077332,707.899780 859.012634,707.448669 859.128296,706.134094 
	C858.089478,704.526550 861.516785,701.104248 856.109863,700.694702 
	C852.745850,700.774597 849.381897,700.854431 845.424866,700.690918 
	C843.944214,700.772949 842.463562,700.854980 840.084595,700.724304 
	C836.392822,700.804504 832.700989,700.884766 828.417542,700.722229 
	C826.940186,700.799683 825.462769,700.877197 823.260132,700.734375 
	C822.512329,700.804016 821.764587,700.873657 821.062866,700.998108 
	C821.062866,700.998108 821.113342,700.947266 820.445740,700.233765 
	C820.416443,699.568970 820.361511,698.904114 820.361572,698.239319 
	C820.373718,598.823059 820.389832,499.406769 820.405701,399.990479 
	C820.405945,398.244598 820.405640,396.498749 820.405640,394.963013 
	C767.275513,394.963013 714.885864,394.963013 662.472290,394.963013 
	C662.472290,409.065063 662.472290,422.836121 662.472290,436.901123 
	C688.462036,436.901123 714.216125,436.901123 740.614075,437.085266 
	C741.282104,437.095062 741.950195,437.104828 742.712830,438.031097 
	C742.718262,513.356201 742.710327,588.681274 742.736938,664.006348 
	C742.745239,687.662048 742.846252,711.317810 742.643494,735.689270 
	C742.614258,737.503235 742.340454,739.363220 742.669250,741.109802 
	C742.812256,741.869873 744.192871,742.396973 745.825012,743.233398 
	C747.212952,743.160889 748.600952,743.088440 750.851868,743.202209 
	C752.901672,743.133057 754.951538,743.063965 757.774109,743.226196 
	C768.182861,743.151184 778.591675,743.076172 789.737488,743.195557 
	C790.491272,743.131470 791.245056,743.067322 792.536743,743.234558 
M671.064697,700.879089 
	C669.737122,700.822632 668.409485,700.716980 667.081909,700.716919 
	C619.047791,700.715149 571.013733,700.719604 522.979614,700.745483 
	C521.327515,700.746399 519.675537,700.976135 517.207153,700.959106 
	C497.040436,703.537415 481.646942,719.772644 480.901733,739.918518 
	C480.055756,744.463806 483.473267,743.159790 485.597717,743.161926 
	C544.416504,743.219543 603.235291,743.235352 662.054138,743.223694 
	C677.043762,743.220764 692.033386,743.101624 707.881042,743.205627 
	C708.261780,742.591736 708.942871,741.995361 708.979797,741.361450 
	C710.115051,721.862976 691.638916,701.793518 671.064697,700.879089 
M171.275055,739.030762 
	C170.238174,740.164062 169.201279,741.297424 167.855972,742.767822 
	C260.679901,742.767822 352.743286,742.767822 444.804565,742.767822 
	C445.282013,737.515625 445.717896,732.720337 446.478882,727.277954 
	C449.360504,719.996277 452.242126,712.714539 455.684601,704.952271 
	C456.361450,703.727295 457.038300,702.502319 458.016876,700.731262 
	C451.105438,700.731262 444.959625,700.734558 438.813812,700.730713 
	C382.572144,700.695862 326.330475,700.659729 270.485779,700.142395 
	C280.250275,690.121704 289.935089,680.021912 299.793701,670.094727 
	C334.434967,635.212341 369.110443,600.363831 403.838409,565.567688 
	C409.932281,559.461853 416.341583,553.670837 420.941437,549.311279 
	C410.785156,537.918152 401.443146,527.438416 391.962341,516.803040 
	C389.699036,518.957214 388.224640,520.292786 386.824951,521.702515 
	C330.346832,578.585266 273.860016,635.459351 217.413513,692.373474 
	C202.174622,707.738586 187.060623,723.227539 171.275055,739.030762 
M438.954926,533.545288 
	C466.203705,560.259277 493.384369,587.043335 520.723572,613.664490 
	C541.498596,633.893921 570.962036,633.871826 591.977356,613.822998 
	C595.472961,610.488159 598.841187,607.019958 602.272705,603.617798 
	C620.023438,586.019165 638.113403,568.746765 655.433594,550.734131 
	C673.261719,532.193237 672.214417,501.293793 653.953369,483.407806 
	C605.500549,435.949982 557.059570,388.480103 508.598083,341.031128 
	C490.738831,323.545013 473.052338,305.874512 454.890167,288.708008 
	C437.406097,272.182373 408.749847,271.417175 391.560730,287.735046 
	C367.649139,310.434601 344.453735,333.898773 321.285797,357.365417 
	C313.798096,364.949677 310.462189,374.831329 310.035431,385.510925 
	C309.422424,400.851410 315.788544,412.999298 326.654541,423.561401 
	C364.056274,459.917236 401.207886,496.530304 438.954926,533.545288 
M624.115723,312.500824 
	C624.115723,332.560150 624.115723,352.619476 624.115723,372.555542 
	C702.789551,372.555542 780.678894,372.555542 858.573181,372.555542 
	C858.573181,346.229309 858.573181,320.204926 858.573181,294.325867 
	C780.270081,294.325867 702.383606,294.325867 624.117615,294.325867 
	C624.117615,300.243347 624.117615,305.872467 624.115723,312.500824 
z"/>
<path fill="#112F4F" opacity="1.000000" stroke="none" 
	d="
M438.704895,533.295288 
	C401.207886,496.530304 364.056274,459.917236 326.654541,423.561401 
	C315.788544,412.999298 309.422424,400.851410 310.035431,385.510925 
	C310.462189,374.831329 313.798096,364.949677 321.285797,357.365417 
	C344.453735,333.898773 367.649139,310.434601 391.560730,287.735046 
	C408.749847,271.417175 437.406097,272.182373 454.890167,288.708008 
	C473.052338,305.874512 490.738831,323.545013 508.598083,341.031128 
	C557.059570,388.480103 605.500549,435.949982 653.953369,483.407806 
	C672.214417,501.293793 673.261719,532.193237 655.433594,550.734131 
	C638.113403,568.746765 620.023438,586.019165 602.272705,603.617798 
	C598.841187,607.019958 595.472961,610.488159 591.977356,613.822998 
	C570.962036,633.871826 541.498596,633.893921 520.723572,613.664490 
	C493.384369,587.043335 466.203705,560.259277 438.704895,533.295288 
M454.290741,488.205750 
	C470.304901,503.922089 486.319061,519.638428 502.044342,535.071289 
	C525.785828,511.295715 549.253296,487.794495 572.867249,464.146667 
	C540.902710,432.792419 508.715546,401.219818 476.850800,369.963440 
	C453.164795,393.610046 429.649780,417.085968 407.848541,438.850952 
	C423.017700,454.982391 438.402985,471.343658 454.290741,488.205750 
M382.775543,355.275177 
	C374.013855,363.938202 365.263428,372.612671 356.484009,381.257690 
	C353.626160,384.071777 351.539124,387.215118 354.903259,390.746674 
	C361.395905,397.562500 368.178406,404.102203 374.993683,410.909119 
	C398.716095,386.943146 422.074310,363.345184 445.512024,339.666840 
	C439.801208,333.938354 433.938141,328.051605 428.068634,322.171265 
	C422.888367,316.981415 421.423248,316.892151 416.219330,322.024170 
	C405.194366,332.896820 394.252838,343.854095 382.775543,355.275177 
M544.776245,576.716309 
	C546.679199,578.580750 548.526428,580.506531 550.495728,582.298035 
	C555.968201,587.276489 558.214722,587.257935 563.509094,582.044434 
	C573.830505,571.880676 584.098511,561.662598 594.383179,551.461548 
	C603.957703,541.964783 613.527954,532.463684 623.093994,522.958435 
	C625.388550,520.678467 627.244202,517.810303 624.672302,515.077209 
	C617.998108,507.985077 610.922852,501.270538 604.306824,494.702332 
	C580.343872,518.590149 556.897156,541.963318 533.627625,565.159851 
	C537.156616,568.828308 540.713501,572.525635 544.776245,576.716309 
z"/>
<path fill="#102E50" opacity="1.000000" stroke="none" 
	d="
M858.947876,706.997620 
	C859.012634,707.448669 859.077332,707.899780 858.763794,708.963806 
	C857.925171,718.800964 857.381042,728.022217 857.054077,737.251160 
	C856.952148,740.128052 856.505249,742.240356 852.538208,741.996216 
	C847.381042,741.992493 842.690491,741.990112 837.747375,741.727600 
	C830.664795,741.644104 823.834839,741.820862 816.535828,741.996338 
	C809.376221,741.995911 802.685669,741.996704 795.595947,741.995728 
	C794.131958,741.995605 793.067139,741.997192 791.626709,741.998169 
	C790.500000,741.997559 789.748840,741.997620 788.529236,741.995361 
	C777.703430,741.674377 767.346130,741.355652 756.600830,741.028809 
	C754.138245,741.685791 752.063599,742.350891 749.988892,743.015991 
	C748.600952,743.088440 747.212952,743.160889 745.419678,742.700317 
	C744.685059,739.779480 744.355835,737.391724 744.022156,734.535034 
	C744.014526,637.045837 744.019470,540.025452 743.950134,443.005157 
	C743.948730,441.041351 743.081543,439.078094 742.618225,437.114594 
	C741.950195,437.104828 741.282104,437.095062 739.985291,436.716919 
	C737.540833,436.234406 735.725342,436.023163 733.909546,436.020996 
	C712.586792,435.995453 691.264038,436.001221 669.941284,435.998810 
	C668.160339,435.998627 666.379456,435.998779 664.997253,435.998779 
	C664.997253,424.361481 665.231445,413.362030 664.885559,402.380890 
	C664.740967,397.790436 666.324219,396.893799 670.577515,396.907715 
	C714.888367,397.052765 759.199951,396.996002 803.511292,396.995209 
	C808.430481,396.995148 813.349670,396.995209 818.997559,396.995209 
	C818.997559,398.624451 818.997620,400.731293 818.997559,402.838165 
	C818.996033,471.137665 818.994263,539.437134 818.993103,607.736633 
	C818.992615,637.055420 818.957153,666.374451 819.084412,695.692688 
	C819.092041,697.447083 820.406799,699.195862 821.113342,700.947266 
	C821.113342,700.947266 821.062866,700.998108 821.229980,701.246826 
	C822.262268,701.658752 823.127502,701.822021 824.410278,701.990601 
	C826.220337,701.993347 827.612854,701.990723 829.465698,701.990845 
	C833.619690,701.997253 837.313232,702.000854 841.422363,702.006042 
	C843.223755,702.005798 844.609619,702.004028 846.453003,702.002686 
	C850.273132,702.004944 853.635681,702.006897 857.001221,702.401123 
	C857.652100,704.194824 858.299988,705.596252 858.947876,706.997620 
z"/>
<path fill="#5FADAF" opacity="1.000000" stroke="none" 
	d="
M455.123749,705.432861 
	C452.242126,712.714539 449.360504,719.996277 445.988525,727.832520 
	C444.998779,730.768005 444.147552,733.137329 444.067841,735.532288 
	C443.852966,741.989990 443.983429,741.999207 437.507660,741.999329 
	C351.193298,742.000366 264.878937,741.999939 178.564575,741.999695 
	C177.398178,741.999695 175.997208,742.402588 175.120987,741.897339 
	C173.845551,741.161804 172.947998,739.771057 171.889313,738.659668 
	C187.060623,723.227539 202.174622,707.738586 217.413513,692.373474 
	C273.860016,635.459351 330.346832,578.585266 386.824951,521.702515 
	C388.224640,520.292786 389.699036,518.957214 391.962341,516.803040 
	C401.443146,527.438416 410.785156,537.918152 420.941437,549.311279 
	C416.341583,553.670837 409.932281,559.461853 403.838409,565.567688 
	C369.110443,600.363831 334.434967,635.212341 299.793701,670.094727 
	C289.935089,680.021912 280.250275,690.121704 270.492432,700.763062 
	C272.448029,701.589172 274.396912,701.972900 276.345978,701.974060 
	C333.576385,702.006897 390.806763,702.001709 448.037170,702.002625 
	C449.201752,702.002625 450.376007,702.100830 451.528900,701.985168 
	C454.132019,701.723816 455.206573,702.948181 455.123749,705.432861 
z"/>
<path fill="#122F50" opacity="1.000000" stroke="none" 
	d="
M624.116699,312.001221 
	C624.117615,305.872467 624.117615,300.243347 624.117615,294.325867 
	C702.383606,294.325867 780.270081,294.325867 858.573181,294.325867 
	C858.573181,320.204926 858.573181,346.229309 858.573181,372.555542 
	C780.678894,372.555542 702.789551,372.555542 624.115723,372.555542 
	C624.115723,352.619476 624.115723,332.560150 624.116699,312.001221 
z"/>
<path fill="#112F50" opacity="1.000000" stroke="none" 
	d="
M481.115906,739.023865 
	C481.646942,719.772644 497.040436,703.537415 517.922546,701.306274 
	C519.619202,701.766724 520.600342,701.978638 521.581665,701.979065 
	C570.303955,701.998352 619.026245,702.007202 667.748474,701.965027 
	C669.158081,701.963806 670.567078,701.402161 671.976379,701.101807 
	C691.638916,701.793518 710.115051,721.862976 708.979797,741.361450 
	C708.942871,741.995361 708.261780,742.591736 707.162109,742.815430 
	C704.467407,742.283508 702.491699,742.018738 700.515808,742.018127 
	C629.530396,741.996155 558.544983,741.998169 487.559601,742.000549 
	C484.945007,742.000671 482.092987,742.551880 481.115906,739.023865 
z"/>
<path fill="#10253B" opacity="1.000000" stroke="none" 
	d="
M820.779541,700.590515 
	C820.406799,699.195862 819.092041,697.447083 819.084412,695.692688 
	C818.957153,666.374451 818.992615,637.055420 818.993103,607.736633 
	C818.994263,539.437134 818.996033,471.137665 818.997559,402.838165 
	C818.997620,400.731293 818.997559,398.624451 818.997559,396.995209 
	C813.349670,396.995209 808.430481,396.995148 803.511292,396.995209 
	C759.199951,396.996002 714.888367,397.052765 670.577515,396.907715 
	C666.324219,396.893799 664.740967,397.790436 664.885559,402.380890 
	C665.231445,413.362030 664.997253,424.361481 664.997253,435.998779 
	C666.379456,435.998779 668.160339,435.998627 669.941284,435.998810 
	C691.264038,436.001221 712.586792,435.995453 733.909546,436.020996 
	C735.725342,436.023163 737.540833,436.234406 739.663391,436.624817 
	C714.216125,436.901123 688.462036,436.901123 662.472290,436.901123 
	C662.472290,422.836121 662.472290,409.065063 662.472290,394.963013 
	C714.885864,394.963013 767.275513,394.963013 820.405640,394.963013 
	C820.405640,396.498749 820.405945,398.244598 820.405701,399.990479 
	C820.389832,499.406769 820.373718,598.823059 820.361572,698.239319 
	C820.361511,698.904114 820.416443,699.568970 820.779541,700.590515 
z"/>
<path fill="#66A2A1" opacity="1.000000" stroke="none" 
	d="
M171.582184,738.845215 
	C172.947998,739.771057 173.845551,741.161804 175.120987,741.897339 
	C175.997208,742.402588 177.398178,741.999695 178.564575,741.999695 
	C264.878937,741.999939 351.193298,742.000366 437.507660,741.999329 
	C443.983429,741.999207 443.852966,741.989990 444.067841,735.532288 
	C444.147552,733.137329 444.998779,730.768005 445.825989,728.156006 
	C445.717896,732.720337 445.282013,737.515625 444.804565,742.767822 
	C352.743286,742.767822 260.679901,742.767822 167.855972,742.767822 
	C169.201279,741.297424 170.238174,740.164062 171.582184,738.845215 
z"/>
<path fill="#081E35" opacity="1.000000" stroke="none" 
	d="
M742.665527,437.572845 
	C743.081543,439.078094 743.948730,441.041351 743.950134,443.005157 
	C744.019470,540.025452 744.014526,637.045837 743.741577,734.528687 
	C743.278564,734.985229 743.091675,734.979370 742.904846,734.973511 
	C742.846252,711.317810 742.745239,687.662048 742.736938,664.006348 
	C742.710327,588.681274 742.718262,513.356201 742.665527,437.572845 
z"/>
<path fill="#0A2036" opacity="1.000000" stroke="none" 
	d="
M481.008820,739.471191 
	C482.092987,742.551880 484.945007,742.000671 487.559601,742.000549 
	C558.544983,741.998169 629.530396,741.996155 700.515808,742.018127 
	C702.491699,742.018738 704.467407,742.283508 706.733154,742.730469 
	C692.033386,743.101624 677.043762,743.220764 662.054138,743.223694 
	C603.235291,743.235352 544.416504,743.219543 485.597717,743.161926 
	C483.473267,743.159790 480.055756,744.463806 481.008820,739.471191 
z"/>
<path fill="#66A2A1" opacity="1.000000" stroke="none" 
	d="
M455.404175,705.192566 
	C455.206573,702.948181 454.132019,701.723816 451.528900,701.985168 
	C450.376007,702.100830 449.201752,702.002625 448.037170,702.002625 
	C390.806763,702.001709 333.576385,702.006897 276.345978,701.974060 
	C274.396912,701.972900 272.448029,701.589172 270.293945,701.003906 
	C326.330475,700.659729 382.572144,700.695862 438.813812,700.730713 
	C444.959625,700.734558 451.105438,700.731262 458.016876,700.731262 
	C457.038300,702.502319 456.361450,703.727295 455.404175,705.192566 
z"/>
<path fill="#081E35" opacity="1.000000" stroke="none" 
	d="
M671.520508,700.990479 
	C670.567078,701.402161 669.158081,701.963806 667.748474,701.965027 
	C619.026245,702.007202 570.303955,701.998352 521.581665,701.979065 
	C520.600342,701.978638 519.619202,701.766724 518.330688,701.376343 
	C519.675537,700.976135 521.327515,700.746399 522.979614,700.745483 
	C571.013733,700.719604 619.047791,700.715149 667.081909,700.716919 
	C668.409485,700.716980 669.737122,700.822632 671.520508,700.990479 
z"/>
<path fill="#10253B" opacity="1.000000" stroke="none" 
	d="
M853.004883,741.997559 
	C856.505249,742.240356 856.952148,740.128052 857.054077,737.251160 
	C857.381042,728.022217 857.925171,718.800964 858.666138,709.294983 
	C858.946838,720.247986 858.946838,731.482788 858.946838,743.254639 
	C857.174561,743.254639 855.420898,743.254639 853.333374,742.880676 
	C853.001282,742.336975 853.003052,742.167297 853.004883,741.997559 
z"/>
<path fill="#10253B" opacity="1.000000" stroke="none" 
	d="
M756.988770,741.036926 
	C767.346130,741.355652 777.703430,741.674377 788.529785,742.246277 
	C788.999390,742.666687 788.999878,742.833923 789.000427,743.001099 
	C778.591675,743.076172 768.182861,743.151184 757.386963,742.783936 
	C756.996094,741.906738 756.992432,741.471863 756.988770,741.036926 
z"/>
<path fill="#10253B" opacity="1.000000" stroke="none" 
	d="
M817.004883,741.997559 
	C823.834839,741.820862 830.664795,741.644104 837.747314,741.981689 
	C838.000427,742.665344 838.000916,742.834656 838.001404,743.003967 
	C831.258179,743.081177 824.514954,743.158386 817.387085,742.867798 
	C817.003174,742.332520 817.004028,742.165039 817.004883,741.997559 
z"/>
<path fill="#10253B" opacity="1.000000" stroke="none" 
	d="
M742.774170,735.331421 
	C743.091675,734.979370 743.278564,734.985229 743.745972,734.997559 
	C744.355835,737.391724 744.685059,739.779480 745.012878,742.598633 
	C744.192871,742.396973 742.812256,741.869873 742.669250,741.109802 
	C742.340454,739.363220 742.614258,737.503235 742.774170,735.331421 
z"/>
<path fill="#081E35" opacity="1.000000" stroke="none" 
	d="
M816.535828,741.996338 
	C817.004028,742.165039 817.003174,742.332520 817.000793,742.751221 
	C810.305664,743.072205 803.612122,743.141968 796.458374,742.856567 
	C795.997131,742.333435 795.996155,742.165466 795.995117,741.997559 
	C802.685669,741.996704 809.376221,741.995911 816.535828,741.996338 
z"/>
<path fill="#081E35" opacity="1.000000" stroke="none" 
	d="
M838.457642,743.107300 
	C838.000916,742.834656 838.000427,742.665344 838.000000,742.241943 
	C842.690491,741.990112 847.381042,741.992493 852.538208,741.996216 
	C853.003052,742.167297 853.001282,742.336975 852.997192,742.761292 
	C848.301208,743.080811 843.607483,743.145691 838.457642,743.107300 
z"/>
<path fill="#081E35" opacity="1.000000" stroke="none" 
	d="
M841.006775,702.004517 
	C837.313232,702.000854 833.619690,701.997253 829.465881,701.735107 
	C829.006775,701.306091 829.007996,701.135559 829.009216,700.964966 
	C832.700989,700.884766 836.392822,700.804504 840.540527,701.097534 
	C840.999878,701.648621 841.003296,701.826599 841.006775,702.004517 
z"/>
<path fill="#10253B" opacity="1.000000" stroke="none" 
	d="
M859.038086,706.565857 
	C858.299988,705.596252 857.652100,704.194824 857.002563,702.125854 
	C857.002197,701.274841 857.003418,701.091431 857.004700,700.908081 
	C861.516785,701.104248 858.089478,704.526550 859.038086,706.565857 
z"/>
<path fill="#081E35" opacity="1.000000" stroke="none" 
	d="
M856.557251,700.801392 
	C857.003418,701.091431 857.002197,701.274841 856.999573,701.733582 
	C853.635681,702.006897 850.273132,702.004944 846.457703,701.735596 
	C846.009155,701.290222 846.013550,701.112244 846.017883,700.934265 
	C849.381897,700.854431 852.745850,700.774597 856.557251,700.801392 
z"/>
<path fill="#081E35" opacity="1.000000" stroke="none" 
	d="
M756.600830,741.028809 
	C756.992432,741.471863 756.996094,741.906738 757.000549,742.668274 
	C754.951538,743.063965 752.901672,743.133057 750.420410,743.109131 
	C752.063599,742.350891 754.138245,741.685791 756.600830,741.028809 
z"/>
<path fill="#10253B" opacity="1.000000" stroke="none" 
	d="
M845.721375,700.812622 
	C846.013550,701.112244 846.009155,701.290222 846.000122,701.735229 
	C844.609619,702.004028 843.223755,702.005798 841.422363,702.006042 
	C841.003296,701.826599 840.999878,701.648621 840.989624,701.203857 
	C842.463562,700.854980 843.944214,700.772949 845.721375,700.812622 
z"/>
<path fill="#10253B" opacity="1.000000" stroke="none" 
	d="
M828.713379,700.843628 
	C829.007996,701.135559 829.006775,701.306091 829.005493,701.732422 
	C827.612854,701.990723 826.220337,701.993347 824.409485,701.733093 
	C823.989136,701.298401 823.987244,701.126526 823.985413,700.954712 
	C825.462769,700.877197 826.940186,700.799683 828.713379,700.843628 
z"/>
<path fill="#10253B" opacity="1.000000" stroke="none" 
	d="
M795.595947,741.995728 
	C795.996155,742.165466 795.997131,742.333435 795.999817,742.753296 
	C794.846558,743.081604 793.691650,743.158081 792.268799,742.867798 
	C792.001282,742.333618 792.001770,742.166260 792.002319,741.998840 
	C793.067139,741.997192 794.131958,741.995605 795.595947,741.995728 
z"/>
<path fill="#081E35" opacity="1.000000" stroke="none" 
	d="
M823.622803,700.844543 
	C823.987244,701.126526 823.989136,701.298401 823.991882,701.727783 
	C823.127502,701.822021 822.262268,701.658752 821.206909,701.219360 
	C821.764587,700.873657 822.512329,700.804016 823.622803,700.844543 
z"/>
<path fill="#081E35" opacity="1.000000" stroke="none" 
	d="
M791.626709,741.998169 
	C792.001770,742.166260 792.001282,742.333618 791.999817,742.752075 
	C791.245056,743.067322 790.491272,743.131470 789.368958,743.098328 
	C788.999878,742.833923 788.999390,742.666687 788.998291,742.248535 
	C789.748840,741.997620 790.500000,741.997559 791.626709,741.998169 
z"/>
<path fill="#FDFEFE" opacity="1.000000" stroke="none" 
	d="
M454.039520,487.955353 
	C438.402985,471.343658 423.017700,454.982391 407.848541,438.850952 
	C429.649780,417.085968 453.164795,393.610046 476.850800,369.963440 
	C508.715546,401.219818 540.902710,432.792419 572.867249,464.146667 
	C549.253296,487.794495 525.785828,511.295715 502.044342,535.071289 
	C486.319061,519.638428 470.304901,503.922089 454.039520,487.955353 
z"/>
<path fill="#FAFCFC" opacity="1.000000" stroke="none" 
	d="
M383.026306,355.025940 
	C394.252838,343.854095 405.194366,332.896820 416.219330,322.024170 
	C421.423248,316.892151 422.888367,316.981415 428.068634,322.171265 
	C433.938141,328.051605 439.801208,333.938354 445.512024,339.666840 
	C422.074310,363.345184 398.716095,386.943146 374.993683,410.909119 
	C368.178406,404.102203 361.395905,397.562500 354.903259,390.746674 
	C351.539124,387.215118 353.626160,384.071777 356.484009,381.257690 
	C365.263428,372.612671 374.013855,363.938202 383.026306,355.025940 
z"/>
<path fill="#FDFEFE" opacity="1.000000" stroke="none" 
	d="
M544.523315,576.469666 
	C540.713501,572.525635 537.156616,568.828308 533.627625,565.159851 
	C556.897156,541.963318 580.343872,518.590149 604.306824,494.702332 
	C610.922852,501.270538 617.998108,507.985077 624.672302,515.077209 
	C627.244202,517.810303 625.388550,520.678467 623.093994,522.958435 
	C613.527954,532.463684 603.957703,541.964783 594.383179,551.461548 
	C584.098511,561.662598 573.830505,571.880676 563.509094,582.044434 
	C558.214722,587.257935 555.968201,587.276489 550.495728,582.298035 
	C548.526428,580.506531 546.679199,578.580750 544.523315,576.469666 
z"/>
</svg>