<svg xmlns="http://www.w3.org/2000/svg" viewBox="0 0 1024 1024" width="100%">
  <path fill="#112F4F" d="M438.7 533.3c-37.5-36.8-74.6-73.4-112.1-109.7-10.8-10.6-17.2-22.7-16.6-38.1.4-10.6 3.8-20.5 11.2-28.1 23.2-23.5 46.4-46.9 70.3-69.6 17.2-16.3 45.9-15.5 63.4 1 18.1 17.2 35.8 34.9 53.7 52.4 48.5 47.4 96.9 94.9 145.3 142.4 18.3 17.9 19.3 48.8 1.5 67.4-17.3 18-35.4 35.3-53.2 52.9-3.4 3.4-6.8 6.8-10.3 10.2-21 20-50.5 20-71.2-.2-27.4-26.7-54.5-53.4-82-80.4z"/>
  
  <path fill="#112F4F" d="M858.9 707c0 .4.1.9-.2 2-.8 9.8-1.4 19-1.7 28.2-.1 2.9-.6 5-4.5 4.8-5.2 0-9.8 0-14.8-.3-7-.1-13.9.1-21.2.3-7.2 0-13.9 0-21 0-1.4 0-2.5 0-3.9 0-1.1 0-1.9 0-3.1 0-10.8-.3-21.2-.6-32-.9-2.4.6-4.5 1.3-6.6 2-1.4.1-2.8.1-4.6-.4-.7-2.9-1-5.3-1.4-8.1 0-97.5 0-194.5 0-291.5 0-2-.9-3.9-1.3-5.9-.7 0-1.4 0-2.7-.4-2.4-.5-4.2-.7-6-.7-21.3 0-42.6 0-63.9 0-1.8 0-3.6 0-5 0v-11.6c.2-11 0-22-.3-33-.1-4.6 1.5-5.5 5.7-5.5 44.3.1 88.6.1 132.9.1 4.9 0 9.8 0 15.5 0v2.1c0 2.1 0 4.2 0 6.3 0 68.3 0 136.6 0 204.9 0 29.3 0 58.6.1 87.9 0 1.8 1.3 3.5 2 5.3 0 0 0 .1.2.3 1 0 1.9.2 3.2.3 1.8 0 3.2 0 5 0 4.2 0 7.9 0 12 0 1.8 0 3.2 0 5 0 3.8 0 7.2 0 10.5.4.7 1.8 1.3 3.2 2 4.6z"/>

  <path fill="#5FADAF" d="M455.1 705.4c-2.9 7.3-5.8 14.6-9.1 22.4-1 2.9-1.9 5.3-1.9 7.7-.2 6.5-.1 6.5-6.5 6.5-86.4 0-172.7 0-259 0-1.2 0-2.6.4-3.4-.1-1.3-.7-2.2-2.1-3.3-3.2 15.2-15.4 30.3-30.9 45.5-46.3 56.5-56.9 112.9-113.8 169.4-170.7 1.4-1.4 2.9-2.7 5.2-4.9 9.5 10.6 18.8 21.1 29 32.5-4.6 4.4-11 10.2-17.1 16.3-34.7 34.8-69.4 69.6-104 104.5-9.9 9.9-19.6 20-29.3 30.7 1.9.8 3.9 1.2 5.8 1.2 57.2 0 114.5 0 171.7 0 1.2 0 2.4.1 3.5 0 2.6-.3 3.7.9 3.6 3.4z"/>

  <path fill="#112F4F" d="M624.1 312c0-6.1 0-11.8 0-17.7 78.3 0 156.2 0 234.5 0 0 25.9 0 51.9 0 78.2-77.9 0-155.8 0-234.5 0 0-19.9 0-40 0-60.5z"/>

  <path fill="#112F4F" d="M481.1 739c.5-19.3 15.9-35.5 36.8-37.7 1.7.4 2.7.6 3.7.6 48.7 0 97.5 0 146.2 0 1.4 0 2.8-.5 4.2-.8 19.7.7 38.2 20.8 37 40.3 0 .6-.7 1.2-1.8 1.4-2.7-.5-4.7-.8-6.6-.8-71 0-142 0-213 0-2.6 0-5.5.6-6.5-2.9z"/>

  <path fill="#FFFFFF" d="M454 488c-15.6-16.6-31-33-46.2-49.1 21.8-21.8 45.3-45.2 69-68.9 31.9 31.3 64.1 62.8 96.1 94.2-23.6 23.6-47.1 47.1-70.8 70.9-15.7-15.4-31.7-31.1-48.1-47.1z"/>

  <path fill="#FFFFFF" d="M383 355c11.2-11.2 22.2-22.1 33.2-33 5.2-5.1 6.7-5 11.9.1 5.9 5.9 11.7 11.8 17.4 17.5-23.4 23.7-46.8 47.3-70.5 71.3-6.8-6.8-13.6-13.3-20.1-20.2-3.4-3.4-1.3-6.5 1.5-9.3 8.8-8.7 17.6-17.3 26.6-26.4z"/>
  
  <path fill="#FFFFFF" d="M544.5 576.5c-3.8-3.9-7.4-7.6-10.9-11.3 23.3-23.2 46.8-46.6 70.7-70.5 6.6 6.6 13.7 13.3 20.4 20.4 2.6 2.7.7 5.6-1.6 7.9-9.6 9.5-19.1 19-28.7 28.5-10.3 10.2-20.6 20.4-30.9 30.6-5.3 5.2-7.5 5.2-13 0-1.9-1.9-3.8-3.8-5.9-6-.1 0-.1.1-.1 0z"/>
</svg>